<svg xmlns="http://www.w3.org/2000/svg" viewBox="0 0 512 512" style="enable-background:new 0 0 512 512" xml:space="preserve"><path style="fill:#eda751" d="M382.253 469.034h-81.541c-13.18 0-23.865-10.684-23.865-23.865s10.685-23.865 23.865-23.865h81.541c13.18 0 23.865 10.685 23.865 23.865 0 13.182-10.684 23.865-23.865 23.865z"/><path style="opacity:.2;fill:#a35f00;enable-background:new" d="M382.253 469.034h-81.541c-13.18 0-23.865-10.684-23.865-23.865s10.685-23.865 23.865-23.865h81.541c13.18 0 23.865 10.685 23.865 23.865 0 13.182-10.684 23.865-23.865 23.865z"/><path style="fill:#eda751" d="M98.203 461.628c-11.19 0-20.628-3.724-27.832-8.073-22.54-13.609-27.779-35.772-32.402-55.324-4.779-20.213-8.438-33.01-22.842-41.087-7.185-4.028-9.743-13.12-5.713-20.305 4.027-7.184 13.115-9.746 20.305-5.713 26.56 14.893 32.504 40.038 37.28 60.243 4.327 18.301 7.55 29.863 18.79 36.648 6.977 4.211 16.145 7.102 31.257-3.378 12.717-8.821 24.629-23.517 35.14-36.483 1.232-1.52 2.437-3.005 3.613-4.447 5.215-6.38 14.611-7.324 20.988-2.115 6.38 5.212 7.326 14.609 2.115 20.988-1.155 1.413-2.335 2.87-3.542 4.359-11.183 13.796-25.101 30.965-41.311 42.208-13.235 9.182-25.316 12.479-35.846 12.479z"/><path style="opacity:.2;fill:#c18f00;enable-background:new" d="M176.788 381.596c-6.376-5.209-15.773-4.265-20.988 2.115a1532.518 1532.518 0 0 0-3.614 4.447c-10.511 12.966-22.423 27.662-35.14 36.483-2.446 1.697-4.735 3.038-6.886 4.085 5.397 8.536 11.87 16.403 19.247 23.432a87.594 87.594 0 0 0 4.641-3.006c16.21-11.244 30.128-28.413 41.311-42.208 1.207-1.489 2.388-2.946 3.542-4.359 5.213-6.381 4.267-15.777-2.113-20.989z"/><path style="fill:#fcd79d" d="M29.72 331.125c-7.19-4.033-16.278-1.471-20.305 5.713-4.03 7.185-1.472 16.277 5.713 20.305 3.421 1.918 6.23 4.107 8.598 6.594 6.687-4.373 14.254-12.124 18.346-23.739-3.537-3.225-7.611-6.215-12.352-8.873z"/><ellipse style="fill:#fcd690" cx="221.556" cy="366.757" rx="110.068" ry="102.279"/><path style="opacity:.1;fill:#c18f00;enable-background:new" d="M205.483 467.945c-50.299-33.024-34.711-100.708-26.173-130.308V272.28c-39.823 15.395-67.826 51.892-67.826 94.472.001 51.415 40.828 93.964 93.999 101.193z"/><path style="fill:#eda751" d="M154.571 189.397c21.539-18.073 35.92-48.412 5.539-93.263-30.621-45.204-76.209-56.535-111.8-52.342a22.257 22.257 0 0 0-18.679 15.674c-10.31 34.323-7.067 81.187 32.134 119.191 38.892 37.707 71.267 28.813 92.806 10.74z"/><path style="fill:#ff91ab" d="M28.198 64.718c-8.452 33.747-3.673 77.836 33.566 113.939 33.712 32.684 62.52 30.348 83.626 17.379C130.873 97.497 67.465 71.368 28.198 64.718z"/><path style="fill:#eda751" d="M288.542 189.397c-21.539-18.073-35.919-48.412-5.539-93.263 30.621-45.204 76.209-56.535 111.8-52.342a22.257 22.257 0 0 1 18.679 15.674c10.31 34.323 7.067 81.187-32.134 119.191-38.892 37.707-71.267 28.813-92.806 10.74z"/><path style="fill:#ff91ab" d="M414.915 64.718c8.452 33.747 3.673 77.836-33.566 113.939-33.712 32.684-62.52 30.348-83.626 17.379C312.24 97.497 375.648 71.368 414.915 64.718z"/><path style="fill:#fcd690" d="M408.953 216.675c0 85.683-83.9 123.21-187.396 123.21S34.161 302.358 34.161 216.675s83.9-155.143 187.396-155.143 187.396 69.46 187.396 155.143z"/><path style="opacity:.1;fill:#c18f00;enable-background:new" d="M121.496 85.487C69.014 112.981 34.16 161.456 34.16 216.676c0 73.656 62 111.725 145.15 120.962C59.95 266.341 75.517 170.439 121.496 85.487z"/><ellipse style="fill:#ff91ab" cx="142.727" cy="221.479" rx="33.931" ry="27.02"/><ellipse style="fill:#ff91ab" cx="326.635" cy="221.479" rx="33.931" ry="27.02"/><path style="fill:#eda751" d="M303.099 469.034h-81.542c-13.18 0-23.865-10.684-23.865-23.865s10.685-23.865 23.865-23.865h81.542c13.181 0 23.865 10.685 23.865 23.865 0 13.182-10.685 23.865-23.865 23.865zM127.282 379.65a23.818 23.818 0 0 1-7.447-2.69c-11.488-6.461-15.562-21.012-9.099-32.5 10.941-19.451 38.6-33.357 65.768-33.067 27.334.296 50.606 14.676 63.86 39.461 6.215 11.623 1.831 26.083-9.792 32.298-11.622 6.216-26.083 1.832-32.298-9.792-4.907-9.176-11.559-13.693-20.932-14.197-12.065-.656-22.983 5.836-25.065 8.796-5.137 9.038-15.299 13.447-24.995 11.691zm25.052-11.79-.004.007.004-.007z"/><path style="fill:#dee2e5" d="M504.499 380.834H223.314V234.357c0-10.459 8.479-18.937 18.937-18.937h243.312c10.459 0 18.937 8.479 18.937 18.937l-.001 146.477z"/><path style="fill:#7694e4" d="M504.499 380.834H223.314v42.919h268.229c7.156 0 12.956-5.801 12.956-12.956v-29.963zM124.464 380.834h98.85v42.919h-98.85c-7.156 0-12.956-5.801-12.956-12.956V393.79c.001-7.155 5.802-12.956 12.956-12.956z"/><path style="opacity:.1;enable-background:new" d="M124.464 380.834h98.85v42.919h-98.85c-7.156 0-12.956-5.801-12.956-12.956V393.79c.001-7.155 5.802-12.956 12.956-12.956z"/><circle style="fill:#fff" cx="363.904" cy="298.128" r="28.972"/><path d="M139.482 233.963c-10.569 2.807-30.512 12.824-38.253 18.54a7.5 7.5 0 0 0 4.46 13.535 7.46 7.46 0 0 0 4.448-1.467c6.376-4.707 24.62-13.834 33.195-16.11a7.5 7.5 0 0 0-3.85-14.498zm174.882-39.436v-11.982c0-4.143-3.357-7.5-7.5-7.5s-7.5 3.357-7.5 7.5v11.982c0 4.143 3.357 7.5 7.5 7.5s7.5-3.357 7.5-7.5zm-144.364 0v-11.982c0-4.143-3.357-7.5-7.5-7.5s-7.5 3.357-7.5 7.5v11.982c0 4.143 3.357 7.5 7.5 7.5s7.5-3.357 7.5-7.5zm315.563 13.393h-69.407c-1.004-15.909-4.738-31.383-11.002-46.049 20.62-30.81 26.296-68.662 15.512-104.563a29.705 29.705 0 0 0-24.984-20.964c-35.767-4.221-70.977 6.969-97.377 30.744-23.946-8.553-49.944-13.055-76.748-13.055-26.817 0-52.813 4.5-76.753 13.051-26.4-23.772-61.602-34.953-97.372-30.74a29.703 29.703 0 0 0-24.984 20.965c-10.78 35.891-5.11 73.731 15.497 104.537-7.416 17.354-11.283 35.837-11.283 54.83 0 37.316 14.757 67.671 43.858 90.219a7.46 7.46 0 0 0 4.589 1.571 7.501 7.501 0 0 0 4.599-13.429c-25.246-19.559-38.046-45.924-38.046-78.361 0-81.41 80.701-147.643 179.897-147.643 26.363 0 51.856 4.64 75.119 13.432.451.224.918.399 1.397.526 14.77 5.71 28.618 13.107 41.19 22.07.057.041.113.085.171.124a175.586 175.586 0 0 1 9.364 7.171c18.062 14.844 31.809 32.307 40.72 51.333.124.338.279.665.451.984 6.3 13.744 10.09 28.289 11.154 43.246H248.99a32.782 32.782 0 0 0 10.378-7.934 7.5 7.5 0 0 0-11.309-9.855c-3.377 3.875-8.253 6.098-13.377 6.098s-9.999-2.223-13.376-6.098a7.501 7.501 0 0 0-11.309 9.855 32.745 32.745 0 0 0 20.094 10.907c-8.474 4.409-14.278 13.268-14.278 23.464v80.114c-11.695-6.794-25.013-10.424-39.229-10.578-18.089-.18-36.411 5.479-50.748 14.809-6.006-2.003-11.787-4.219-17.196-6.634a7.5 7.5 0 0 0-9.905 3.792 7.5 7.5 0 0 0 3.792 9.905 196.373 196.373 0 0 0 9.845 4.056c-3.229 3.421-5.995 7.089-8.172 10.959-4.107 7.303-5.126 15.768-2.867 23.835a31.614 31.614 0 0 0 2.787 6.79 103.55 103.55 0 0 0 1.623 14.175 20.332 20.332 0 0 0-1.733 8.21v17.007c0 4.056 1.201 7.83 3.245 11.013-8.551 4.317-13.383 2.324-17.587-.212-8.253-4.983-11.021-13.564-15.368-31.955-4.844-20.491-11.479-48.555-40.909-65.059a22.262 22.262 0 0 0-17.041-2.028 22.268 22.268 0 0 0-13.476 10.614 22.27 22.27 0 0 0-2.026 17.036 22.263 22.263 0 0 0 10.613 13.479c11.152 6.254 14.273 15.383 19.211 36.273 4.718 19.951 10.588 44.779 35.825 60.017 10.061 6.073 20.729 9.152 31.708 9.152 13.407 0 26.905-4.648 40.119-13.814a111.482 111.482 0 0 0 6.801-5.143c21.048 16.821 48.033 26.364 76.434 26.364h160.696c17.295 0 31.365-14.07 31.365-31.364 0-4.952-1.152-9.683-3.242-13.918h81.168c11.279 0 20.456-9.177 20.456-20.456V234.357c-.003-14.578-11.862-26.437-26.439-26.437zM84.265 101.195c-16.015 13.259-28.919 28.427-38.427 44.893-15.745-27.959-14.96-55.284-11.84-72.601 15.685 3.463 35.46 10.57 53.528 25.073a188.474 188.474 0 0 0-3.261 2.635zm15.79-11.731C79.24 71.673 56.135 63.101 37.899 58.992a14.71 14.71 0 0 1 11.287-7.752c28.934-3.403 57.437 4.627 79.869 22.187-10.161 4.58-19.863 9.939-29 16.037zm243 .002c-9.137-6.097-18.842-11.452-29.006-16.033 22.434-17.565 50.938-25.598 79.877-22.192a14.708 14.708 0 0 1 11.288 7.752c-18.237 4.108-41.343 12.68-62.159 30.473zm54.217 56.63c-9.614-16.656-22.704-31.977-38.95-45.328a181.99 181.99 0 0 0-2.743-2.2c18.072-14.508 37.849-21.616 53.537-25.08 3.121 17.319 3.904 44.647-11.844 72.608zm-279.998 202.04c9.427-16.76 34.439-29.247 58.416-29.247.244 0 .49.001.733.004 14.764.159 28.309 4.884 39.391 13.686v40.754h-8.376a16.274 16.274 0 0 1-2.549-3.511c-6.184-11.563-15.063-17.499-27.139-18.148-14.398-.77-27.818 6.582-31.607 11.972a7.197 7.197 0 0 0-.384.606 16.384 16.384 0 0 1-17.14 8.018 16.295 16.295 0 0 1-5.108-1.849 16.277 16.277 0 0 1-5.728-5.381c-.033-.05-.062-.104-.096-.153a16.396 16.396 0 0 1-1.911-4.315 16.258 16.258 0 0 1 1.498-12.436zm72.173 25.198h-31.694c.219-.334.45-.658.657-1.002 1.689-1.539 9.532-6.173 18.531-5.679 5.456.293 9.287 2.287 12.506 6.681zm-59.673 69.655c-10.656 7.392-21.278 11.14-31.571 11.14-8.208 0-16.268-2.353-23.955-6.994-19.843-11.98-24.488-31.628-28.98-50.629-4.542-19.213-8.465-35.807-26.473-45.903a7.366 7.366 0 0 1-3.51-4.458 7.366 7.366 0 0 1 .671-5.638 7.37 7.37 0 0 1 4.457-3.512 7.365 7.365 0 0 1 5.638.673c23.688 13.282 28.981 35.673 33.65 55.427 4.133 17.483 7.702 32.583 22.213 41.344 7.81 4.713 20.357 9.463 39.184-3.487 1.098.183 2.217.301 3.366.301h1.947a112.022 112.022 0 0 0 7.504 8.671 93.92 93.92 0 0 1-4.141 3.065zm-5.31-26.736a5.461 5.461 0 0 1-5.456-5.456V393.79c0-1.079.319-2.083.862-2.931.026-.039.048-.08.073-.12a5.454 5.454 0 0 1 4.521-2.406h91.349v27.92h-91.349zm178.635 45.281h-81.542c-26.927 0-52.36-9.709-71.3-26.647a6.947 6.947 0 0 0-.201-.184 98.242 98.242 0 0 1-3.65-3.451h165.287a16.258 16.258 0 0 1 7.771 13.918c0 9.024-7.342 16.364-16.365 16.364zm79.154 0h-52.409a31.168 31.168 0 0 0 4.62-16.364c0-4.952-1.152-9.683-3.242-13.918h59.626a16.258 16.258 0 0 1 7.771 13.918c-.001 9.024-7.342 16.364-16.366 16.364zm114.746-88.2h-19.667c-4.143 0-7.5 3.357-7.5 7.5s3.357 7.5 7.5 7.5h19.667v22.464a5.461 5.461 0 0 1-5.456 5.456H230.814v-27.92h211.638c4.143 0 7.5-3.357 7.5-7.5s-3.357-7.5-7.5-7.5H230.814V234.357c0-6.307 5.131-11.438 11.438-11.438h243.311c6.307 0 11.438 5.131 11.438 11.438v138.977h-.002zM135.5 208.49c-10.838-1.43-33.095.232-42.433 2.565a7.5 7.5 0 0 0 3.639 14.553c7.688-1.923 28.032-3.41 36.829-2.247 4.092.541 7.875-2.345 8.418-6.453a7.5 7.5 0 0 0-6.453-8.418z"/></svg>